:SAMPLES-PER-SECOND 25
:FULLY-SPECIFIED
:DEGREES
295
root  2.66989 45.5367 -40.5236 163.501 -7.56826 162.072
RightUpLeg  -44.9943 -25.2804 -22.8537
RightLeg  65.8813 5.61625 12.9282
RightFoot  19.4899 -3.62633 13.5975
RightToes  2.84633e-005 7.89722e-005 -0.000426369
Spine  16.5725 0.612094 -1.61887
Spine1  34.0703 0.141272 -6.86146
HEad  21.4986 -6.58352 -21.9569
LeftShoulder1  -3.88251e-019 0 -3.92111e-022
LeftArm  -23.6184 -37.1236 -55.6245
LeftForeArm  39.7058 -2.44621 -6.94788
LeftHand  -0.568519 -3.25262 7.88667
RightShoulder  7.45443e-017 -2.42657e-020 1.96277e-018
RightArm  -22.6541 3.90476 59.3237
RightForeArm  28.3282 5.30783 3.69603
RightHand  -3.79294 15.1587 -21.5669
LeftUpLeg  -98.3679 -3.82098 -33.3612
LeftLeg  144.978 -7.85572 4.71258
LeftFoot  -38.4603 0.288859 0.228465
LeftToes  3.91355e-005 3.11907e-005 -4.10385e-006
296
root  3.01996 45.2635 -40.3968 164.176 -8.16386 158.571
RightUpLeg  -48.6937 -25.3324 -24.3818
RightLeg  69.0202 5.37944 14.513
RightFoot  19.3422 -3.26269 12.3476
RightToes  2.84633e-005 7.89722e-005 -0.000426369
Spine  16.3846 0.48276 -2.01817
Spine1  33.7049 -0.108444 -7.25945
HEad  21.7931 -7.1789 -23.0127
LeftShoulder1  -3.88251e-019 0 -3.92111e-022
LeftArm  -23.9366 -39.6186 -51.5506
LeftForeArm  38.9133 -5.62824 -9.19291
LeftHand  -0.618858 -3.89186 8.00439
RightShoulder  7.45443e-017 -2.42657e-020 1.96277e-018
RightArm  -22.7377 2.8913 59.5181
RightForeArm  30.4138 4.46371 2.89962
RightHand  -5.09668 16.5226 -26.8425
LeftUpLeg  -100.477 -2.58791 -34.8548
LeftLeg  144.805 -6.74662 4.02819
LeftFoot  -36.9096 0.298361 0.329063
LeftToes  3.91355e-005 3.11907e-005 -4.10385e-006
297
root  3.40209 44.9679 -40.2591 164.68 -8.71647 155.095
RightUpLeg  -52.4463 -26.1046 -25.271
RightLeg  70.9457 4.51759 13.5706
RightFoot  17.5326 -2.74928 11.1244
RightToes  2.84633e-005 7.89722e-005 -0.000426369
Spine  16.2508 0.34395 -2.24344
Spine1  33.4347 -0.352047 -7.42676
HEad  21.5945 -7.84622 -24.5986
LeftShoulder1  -3.88251e-019 0 -3.92111e-022
LeftArm  -20.1091 -42.0761 -48.0327
LeftForeArm  35.3525 -9.31401 -10.6152
LeftHand  -0.633766 -3.743 8.31224
RightShoulder  7.45443e-017 -2.42657e-020 1.96277e-018
RightArm  -23.3432 1.36634 59.3213
RightForeArm  32.4675 3.46499 1.4958
RightHand  -8.19146 18.9789 -37.4427
LeftUpLeg  -101.9 -1.29047 -35.2339
LeftLeg  144.559 -5.31395 3.13095
LeftFoot  -36.4068 0.0876186 -0.598953
LeftToes  3.91355e-005 3.11907e-005 -4.10385e-006
298
root  3.8223 44.8804 -39.9757 165.389 -8.91485 151.599
RightUpLeg  -56.3171 -27.2394 -24.9675
RightLeg  70.9862 3.5883 10.7022
RightFoot  15.638 -2.40062 10.4448
RightToes  2.84633e-005 7.89722e-005 -0.000426369
Spine  16.3013 0.115295 -2.55399
Spine1  33.5319 -0.715533 -7.78873
HEad  20.519 -7.99228 -26.2656
LeftShoulder1  -3.88251e-019 0 -3.92111e-022
LeftArm  -11.0821 -44.2344 -44.1413
LeftForeArm  27.7278 -14.2678 -9.66893
LeftHand  -0.660688 -4.01032 8.43523
RightShoulder  7.45443e-017 -2.42657e-020 1.96277e-018
RightArm  -23.3393 -0.181926 60.3143
RightForeArm  29.6471 4.22285 0.370004
RightHand  -16.0375 23.0671 -59.6095
LeftUpLeg  -103.276 0.207639 -35.6634
LeftLeg  143.57 -5.64908 3.4872
LeftFoot  -34.495 -0.0232168 -1.12987
LeftToes  3.91355e-005 3.11907e-005 -4.10385e-006
299
root  4.31046 44.8409 -39.7244 166.601 -8.21478 148.606
RightUpLeg  -61.3092 -26.7761 -23.5436
RightLeg  71.3 3.0267 9.10042
RightFoot  14.811 -2.17798 9.79589
RightToes  2.84633e-005 7.89722e-005 -0.000426369
Spine  16.0179 0.0848989 -2.87391
Spine1  32.9826 -0.752033 -8.38134
HEad  20.2849 -7.63814 -26.8179
LeftShoulder1  -3.88251e-019 0 -3.92111e-022
LeftArm  -2.38997 -45.7375 -39.8858
LeftForeArm  20.9834 -18.7773 -7.00261
LeftHand  -0.53186 -4.04453 6.80002
RightShoulder  7.45443e-017 -2.42657e-020 1.96277e-018
RightArm  -22.4437 -2.96167 62.8781
RightForeArm  25.8073 8.29674 0.00125782
RightHand  -21.3632 24.8827 -71.7947
LeftUpLeg  -104.966 2.67951 -34.691
LeftLeg  142.569 -6.31183 4.10088
LeftFoot  -33.3725 -0.283334 -2.49572
LeftToes  3.91355e-005 3.11907e-005 -4.10385e-006
300
root  4.94855 44.9186 -39.4923 167.87 -8.13264 146.34
RightUpLeg  -65.7502 -26.1819 -21.8191
RightLeg  71.8488 2.92225 9.06618
RightFoot  15.1955 -1.60208 7.23855
RightToes  2.84633e-005 7.89722e-005 -0.000426369
Spine  15.5347 -0.341815 -3.2512
Spine1  32.0824 -1.54009 -9.3521
HEad  21.6933 -7.2197 -25.2184
LeftShoulder1  -3.88251e-019 0 -3.92111e-022
LeftArm  0.419605 -46.3678 -35.8624
LeftForeArm  19.8635 -22.1614 -4.52721
LeftHand  -0.430843 -4.1587 5.51879
RightShoulder  7.45443e-017 -2.42657e-020 1.96277e-018
RightArm  -21.3935 -4.01232 65.1542
RightForeArm  23.7392 10.8186 0.507887
RightHand  -23.8778 25.372 -76.9945
LeftUpLeg  -105.721 5.14508 -32.6869
LeftLeg  141.512 -6.42478 4.35477
LeftFoot  -32.8259 -0.51381 -3.75157
LeftToes  3.91355e-005 3.11907e-005 -4.10385e-006
301
root  5.68381 45.0511 -39.3238 169.49 -8.55567 145.02
RightUpLeg  -69.3991 -25.6528 -19.6329
RightLeg  71.7882 2.8474 8.78026
RightFoot  15.0848 -1.76625 7.95871
RightToes  2.84633e-005 7.89722e-005 -0.000426369
Spine  14.9158 -0.69788 -3.20724
Spine1  30.8949 -2.32529 -9.47738
HEad  24.0845 -7.80184 -23.6733
LeftShoulder1  -3.88251e-019 0 -3.92111e-022
LeftArm  -2.21198 -48.2995 -34.4324
LeftForeArm  22.0598 -23.6558 -3.92475
LeftHand  -0.507727 -4.1968 6.42523
RightShoulder  7.45443e-017 -2.42657e-020 1.96277e-018
RightArm  -21.2862 -4.04726 67.4246
RightForeArm  23.3142 11.1488 -0.607273
RightHand  -24.5412 24.9983 -79.2929
LeftUpLeg  -106.377 6.9785 -30.1688
LeftLeg  140.369 -5.33746 3.7188
LeftFoot  -31.9955 -0.505942 -3.8345
LeftToes  3.91355e-005 3.11907e-005 -4.10385e-006
302
root  6.42778 45.2816 -39.1219 170.907 -9.14117 144.858
RightUpLeg  -71.4706 -24.4312 -17.5263
RightLeg  70.5 3.42434 9.88664
RightFoot  16.3247 -1.88216 8.09446
RightToes  2.84633e-005 7.89722e-005 -0.000426369
Spine  14.5868 -0.745655 -2.70142
Spine1  30.2485 -2.64323 -8.77293
HEad  25.1681 -9.81134 -21.473
LeftShoulder1  -3.88251e-019 0 -3.92111e-022
LeftArm  -6.0356 -52.0067 -33.4677
LeftForeArm  22.7431 -23.6972 -3.89072
LeftHand  -0.656926 -4.34994 8.11489
RightShoulder  7.45443e-017 -2.42657e-020 1.96277e-018
RightArm  -21.2489 -3.36318 68.3785
RightForeArm  24.5871 10.0287 -0.429702
RightHand  -23.3291 24.2733 -77.7569
LeftUpLeg  -106.492 8.64704 -27.4317
LeftLeg  138.92 -3.58406 2.51663
LeftFoot  -31.3676 -0.425403 -3.48024
LeftToes  3.91355e-005 3.11907e-005 -4.10385e-006
303
root  7.12778 45.4771 -39.103 172.553 -10.9493 144.564
RightUpLeg  -72.5812 -24.3901 -16.6999
RightLeg  68.8036 3.87071 10.2323
RightFoot  16.9529 -1.95957 8.23205
RightToes  2.84633e-005 7.89722e-005 -0.000426369
Spine  14.1956 -1.24775 -2.25766
Spine1  29.5129 -3.82449 -8.19768
HEad  25.981 -11.8081 -19.3715
LeftShoulder1  -3.88251e-019 0 -3.92111e-022
LeftArm  -10.5679 -55.2938 -32.5145
LeftForeArm  24.6459 -23.8656 -3.81571
LeftHand  -0.535264 -4.74509 6.42189
RightShoulder  7.45443e-017 -2.42657e-020 1.96277e-018
RightArm  -21.0962 -2.59839 69.2543
RightForeArm  24.4556 8.97201 -0.450449
RightHand  -23.7153 23.7372 -79.7493
LeftUpLeg  -106.165 8.83471 -25.4353
LeftLeg  137.635 -2.5654 1.78172
LeftFoot  -31.4418 -0.447925 -3.59563
LeftToes  3.91355e-005 3.11907e-005 -4.10385e-006
304
root  7.72628 45.5836 -39.164 173.75 -12.9622 143.914
RightUpLeg  -72.4249 -24.5859 -17.1139
RightLeg  66.4188 3.96582 9.25365
RightFoot  16.9107 -2.02465 8.50246
RightToes  2.84633e-005 7.89722e-005 -0.000426369
Spine  13.8659 -1.67084 -2.03282
Spine1  28.8965 -4.74801 -7.97145
HEad  26.9422 -13.8915 -16.6605
LeftShoulder1  -3.88251e-019 0 -3.92111e-022
LeftArm  -14.7004 -58.1882 -32.0752
LeftForeArm  26.1402 -24.6822 -3.90296
LeftHand  -0.541576 -4.78222 6.47379
RightShoulder  7.45443e-017 -2.42657e-020 1.96277e-018
RightArm  -21.3246 -2.17737 70.3713
RightForeArm  24.3022 7.62635 -1.06774
RightHand  -23.4996 23.4851 -79.7216
LeftUpLeg  -105.53 9.02229 -24.012
LeftLeg  136.6 -1.59991 1.00525
LeftFoot  -31.2522 -0.511703 -3.98894
LeftToes  3.91355e-005 3.11907e-005 -4.10385e-006
305
root  8.20919 45.6682 -39.2842 174.343 -14.6197 143.716
RightUpLeg  -70.505 -24.0363 -18.2109
RightLeg  62.9861 4.30854 8.5949
RightFoot  16.4985 -1.91353 8.17245
RightToes  2.84633e-005 7.89722e-005 -0.000426369
Spine  13.676 -1.86307 -1.68375
Spine1  28.541 -5.24191 -7.56757
HEad  26.9592 -15.8766 -13.4538
LeftShoulder1  -3.88251e-019 0 -3.92111e-022
LeftArm  -18.3901 -59.7144 -33.0355
LeftForeArm  27.9195 -27.1536 -4.34211
LeftHand  -0.511007 -4.96251 6.03027
RightShoulder  7.45443e-017 -2.42657e-020 1.96277e-018
RightArm  -22.2285 -2.13261 70.7797
RightForeArm  24.8839 6.91165 -0.17357
RightHand  -22.5638 22.2648 -79.8507
LeftUpLeg  -104.655 9.2374 -22.1633
LeftLeg  135.992 -1.16193 0.639807
LeftFoot  -31.3828 -0.650853 -4.75185
LeftToes  3.91355e-005 3.11907e-005 -4.10385e-006
